

<svg xmlns="http://www.w3.org/2000/svg"
    width="1100dp"
    height="1100dp"
    viewBox="0 0 1100 1100">
  <path
      fill="#000000"
      d="M544.8,445.8C546.2,445.9 547.1,446 548.1,447C554.4,453.5 560.1,480.8 559.9,489.8C559.3,509.7 524,595.2 509.4,608.6C507.6,610.4 505.8,612.2 503.5,613.4C502.2,614.2 501.2,614.5 499.7,614.1C499.1,613.3 498.9,612.9 498.8,611.9C496.4,596.2 535.7,522.8 540.4,496.9C543.5,480.3 534.5,460.5 544.8,445.8Z"/>
  <path
      fill="#000000"
      d="M658.3,351.1C659.5,351 660.7,351 661.9,351.5C667.2,353.3 672.1,367 674,371.8C681.7,391.6 687.7,414 689.8,435.2C690.3,440.1 689.5,445.2 689.3,450.1C688.9,458 688.7,465.8 688.2,473.6C686.7,498.6 686.4,551.6 677,573.2C676.8,573.5 676.6,574 676.4,574.4C675.4,575.9 674.4,576.6 672.7,577C672.3,576.8 672,576.7 671.7,576.3C669.8,574.3 669.4,570 669,567.4C668,558.7 668.5,549.7 668.9,541C669.8,517.7 672.7,494.5 674.6,471.3C675.6,459.6 676.9,447.5 676.2,435.8C675.6,425.1 673.3,414.7 670.3,404.5C665.7,388.6 656.5,367.5 658.3,351.1Z"/>
  <path
      fill="#000000"
      d="M519.1,145.8C519.6,145.8 520,145.7 520.5,145.7C527,145.2 533.6,146.3 540.1,147.4C560.1,151 579.6,157.5 595.3,171C610.7,184.1 621.4,203.7 622.9,224C624.4,243.5 613.2,269.7 600.4,284.2C595.5,289.8 589.4,293.7 581.8,294.1C579.3,294.2 576.2,293.8 574.5,291.8C567.3,283.4 586.9,242.8 590.8,232.8C593.5,225.9 595.9,218.4 597.2,211.1C598.2,205.4 598.4,199.3 594.8,194.4C587,183.9 558,169.1 545.6,165.1C539.2,163.1 532.6,162.2 526,161.3C515.9,160.5 505,163.1 496,167.5C489.8,170.5 482.6,176.4 480.5,183.2C479.5,186.7 480.2,190.9 481.4,194.3C484.5,203.6 490.3,212.9 495.1,221.5C504,237.4 513.3,253 522.7,268.5C528.2,277.4 534,286.3 538.9,295.6C532,294.9 527.9,293.9 522.4,289.4C500,271.3 461,213.2 458.4,184.2C457.8,177 460.2,170.7 464.8,165.2C474.9,153.1 494.4,148.1 509.3,146.2C512.2,145.8 515.2,146.2 518.1,145.9L519.1,145.8Z"/>
  <path
      fill="#000000"
      d="M504.2,36.2C504.3,36.1 504.5,36.1 504.6,36.1C519.4,34.9 525.6,39.2 536.3,48.5C557.6,52.9 582.9,51 604.7,51C623.1,51 641.8,51.8 660.2,51C666.8,50.7 672.3,48 678.7,47.2C692.1,45.3 708.5,48.3 721.8,51.3C728,52.7 732.3,54.3 735.8,59.9C736.6,69.3 731.6,80.6 733.6,88.4C733.8,89.5 734.2,90.3 734.8,91.2C737.3,94.8 740.7,98.1 743.5,101.5C746.4,105.1 749,109 751.7,112.8C762.7,128.9 772.3,145.9 781.2,163.2C788.6,177.7 807.1,216.4 801.3,232.1C797.6,242.2 745.3,280.5 734.3,287.7C725,293.8 715.4,299.2 705.5,304.1C687.6,312.9 665.7,320.1 646,313.5C643.4,312.3 641,311.1 638.7,309.5C633.4,305.9 627.1,299.9 626.2,293.3C625,284.4 633.4,276.4 640,271.7C662.9,255.6 705.6,244.2 732.7,234.8C736.9,233.4 742.5,232.1 746.2,229.9C748.4,228.6 750.3,225.4 751.9,223.4C752.2,218.8 753.3,213.9 753,209.3C751,179.7 732.5,136.1 719.2,109.4C715.5,101.9 710.3,89.7 703.1,85.4C699.9,83.5 696.4,82.8 692.8,82.2C686.8,81.1 680.9,80.1 675.1,78.2C669.3,76.2 663.5,72.8 660.7,67.1C652.7,67.1 644.7,67 636.7,67.3C630.6,67.5 624.6,68.1 618.5,68.2L581.3,68.1C567.1,68.1 551.3,67.1 537.6,71.1C531.5,72.8 527.7,80.5 520.1,83C512.2,85.7 500.3,86.8 492.6,82.8C488.3,80.5 485.4,76.7 484,72.1C481.7,64.4 482.6,54.1 486.7,47.1C490.6,40.4 497.2,38 504.2,36.2Z"/>
  <path
      fill="#000000"
      d="M315.6,292.9C322.2,292.8 328.5,292.7 334.4,296.2C343.3,301.5 349.2,316 346.4,326.2C344.7,332.6 340,338.1 339.2,344.8C337.8,357 344.8,380.3 347.7,392.9C350.3,404.2 352.6,415.6 355.1,426.9C360.5,451.7 365.5,476.6 371.5,501.2C373.5,502.2 375.7,503.1 377.6,504.4C382.8,508.1 387.6,514.1 394,515.6C402.5,517.6 410.8,509.1 416.7,504C428.1,493.9 437.5,482.4 447.2,470.6C451,465.9 455.4,461.2 458.3,455.8C463.9,445.6 466.9,432.6 470.6,421.5C478.3,398.4 497.7,343.2 518.5,331.5C522.6,329.2 527.3,328.2 531.9,329.8C536.9,331.4 540,334.6 542.3,339.3C550.4,355.5 543.5,387.5 538,404.3C538,404.4 538,404.5 538,404.6C535.2,416.8 530.3,429.1 525.6,440.7C507.1,486.7 488.3,504.5 447.5,531C435.5,538.7 388.8,570.8 376.6,568C370.7,566.5 366.6,561.1 361.7,557.8C353.5,552.1 344.7,550 339.3,540.7C336.9,536.5 336.2,531.7 337.4,527.1C339.9,517.7 348.4,511.4 356.3,506.8C354.3,501.8 353.5,495.9 352.3,490.5C350.5,482.3 348.4,474.2 346.7,465.9C342.4,445.8 337.6,425.7 333,405.7C329.9,392.2 327.4,377.5 323.3,364.4C321.5,358.4 318.9,352.4 316.4,346.7C306.6,340.4 300.2,334.3 297,322.8C295.3,316.6 294.6,308.8 298,303.1C301.8,296.7 308.9,294.5 315.6,292.9Z"/>
  <path
      fill="#000000"
      d="M581.4,601.2C587.3,600.1 594.9,600.8 600.8,600.9C643.5,601.5 688.2,615.3 718.4,646.5C727.2,655.6 734.4,665.9 739.1,677.6C741.7,684.1 743.6,690.8 744.5,697.8C745.2,702.3 745.3,707.5 746.8,711.9C748,715.8 750.4,719.3 751.9,723.1C755.4,732.7 758.2,742.6 761.2,752.3C772.1,787.4 780.6,823.4 790.3,858.8C793.6,870.9 801.4,890.5 802,902.1C802.7,916.4 799.6,932.5 794.8,945.9C792.8,951.5 787.3,960.8 787.3,966.3C787.3,967.6 787.2,968.9 787,970.2C786.5,973.6 778.5,985.2 775.7,987.3L775.2,986.9C775.2,985.8 775.2,984.9 774.9,983.9C772.6,984.9 765.7,994.2 763.2,996.7C754.1,1005.9 744.7,1014.4 734.2,1021.9C725.2,1028.3 715.1,1034.3 705.1,1039C699,1041.9 679.8,1048.8 676.4,1051.8L676.3,1052.7C678.5,1054.4 681.6,1053.8 683.8,1055.5C683,1057.5 677.1,1061.5 675.3,1063.3C672.4,1062.8 666.6,1062.4 664.4,1060.4C664.7,1058.2 664.7,1057.3 663.5,1055.3L613.9,1064C599.7,1064.4 585.5,1064.2 571.4,1062.8C565.6,1062.3 560.1,1060.3 554.4,1060.2C547.8,1060 540.8,1061.6 534.2,1062.3C532.9,1059.2 531.7,1056.1 530.6,1052.9C511.1,1043.7 486.9,1020 473.5,1003C464,991.1 457.1,974.4 449.9,960.8C433.7,930.3 418.2,899.4 403.3,868.3C393.5,847.8 382.1,825 375.6,803.3C373.1,794.6 372.5,785.5 373.6,776.6C375.1,763.7 380.7,748.9 391.1,740.7C392.4,736.6 393.2,732.4 394.6,728.4C398.7,716.5 404.8,703.9 411.6,693.3C419.8,680.4 429.9,668.1 441.4,657.9C466.9,635.3 503.5,617 536.4,608.8C545.7,606.5 555.1,604.5 564.7,603.2C570,602.5 575.8,602.5 580.9,601.4C581.1,601.3 581.3,601.3 581.4,601.2ZM584.6,612.5C573.2,613.9 562,613.6 550.6,615.9C500.3,625.7 451.4,655 419.7,695.4C399.1,721.7 386.2,753 387.2,786.6C389.3,788.4 392,792 392,794.9C392.1,797.3 390.2,799.1 388.6,800.7C389.1,806.5 391.1,812.4 393.2,817.7C397.8,829.3 403.5,840.6 408.6,852L439.8,922.5L457.9,963.6C460.7,969.8 463.1,977.1 466.6,982.9C471.3,990.7 480.4,998 487.3,1003.9C496.1,1011.5 508.3,1021.9 519,1026.2L519.8,1026.1C519.7,1025.2 519.5,1024.7 519.2,1023.9C517.1,1018.5 519.4,1009.9 522,1004.9C522.8,1003.2 523.8,1002.5 525.6,1002C527.5,1001.5 529.4,1001.6 531.1,1002.5C535.9,1005.2 538.2,1013.3 539.4,1018.3C539.9,1020.6 540.3,1022.7 540.3,1025C538.4,1027.3 537,1029.4 535.7,1032L535.5,1032.5C540.6,1035.1 546.1,1036.2 551.7,1037.5C583,1044.7 628.6,1043.6 659.4,1033.4L659.9,1033.3C656.4,1025.2 649.4,1011.8 647.9,1003.8C649.6,1002.1 655.4,1001.9 657.8,1002C658.4,1002 659,1002 659.6,1002.1C664.6,1009.3 668,1018 672,1025.8C669.6,1026.7 667.3,1027.3 665.3,1029L665.2,1030C667.5,1031.1 671.6,1029.8 673.9,1028.9C706.4,1017.7 738.7,997.2 760,969.9C763.8,965 767.8,959.8 770.5,954.2C770.4,954 770.3,953.8 770.2,953.6C766.2,944.5 758.3,936.7 753.1,928.1L753.4,927.9L753,927.5C755,926.5 758,927 760.1,927.1C766.1,931.9 771.9,936.9 777,942.7C781.7,929.6 787,916.9 787.9,902.7C789.5,873.8 774.4,843.2 763.4,817.2C759,806.9 754.9,796.4 751,786C747.7,777.2 746,768 743.3,759C740.6,763.3 727.5,776.3 727.3,779.9L727.8,781.6C732.5,797.1 737.7,813.1 740.8,829L740,829C737.3,829.2 733.1,830.8 730.8,830.2C723.8,823.3 730,805.3 710.7,795C701.3,802.3 692.5,810.3 683,817.5C660.8,834.3 636.5,848.3 611.2,860C610.9,868.2 608.1,879.4 610.5,887.2C612.4,893.2 615.6,898.8 617.7,904.7C618.9,898.7 620,892.7 621.9,886.9C622.1,897.6 625.9,907.9 626.2,918.5L617.3,922.8C612.1,914.3 605,906.2 600.8,897.1C603.1,896.4 605.8,898.4 607.4,897.7C604.5,886.5 600.9,886.7 593,879.3C590.4,876.8 588.1,873.1 586,870.1C584.3,869.1 582.1,869.8 580.3,870.3C548.5,878.7 521.2,882.2 488.5,876.4C482.8,875.4 476.6,874.4 471.1,872.5C468.2,877 465.6,881.5 462.9,886.2C464.4,891.1 467.3,895.7 469.6,900.3L482.6,926.9C479.3,925.3 476.2,923.8 472.7,922.6C465.3,908.3 458.4,893.4 450.1,879.5C450,874.8 451.4,869.7 451,865.2C434.5,856.8 419.4,845.6 408.3,830.6C406.8,828.5 405.6,826.3 404.2,824.2C405.5,824.2 406.1,824.4 407,825.4C410.1,828.8 412.4,832.7 415.9,836C431.6,851 452.9,856.7 473.9,859.5C479.8,860.3 486.1,859.9 492,859.9C498,859.9 504.1,860.2 510.1,859.7C559.1,855.3 615.4,833.8 654.3,803.8C678.5,785.2 704.5,758.7 708.6,727C711.5,704.7 704.4,683.7 690.6,666.3C668,637.5 636.7,617.5 600,613.4C595.3,612.8 589.2,612 584.6,612.5Z"/>
  <path
      fill="#000000"
      d="M583,627.7C599.7,625.5 624,629.7 639.5,636.3C661.3,645.7 676.1,661.9 684.8,684C691.9,701.9 692,724.8 684.2,742.5C679.5,753.1 671.1,762.8 660,767C649.3,771.1 635.5,770.9 625,766.3C627.3,763.9 629.9,761.7 631.9,759.2C635.8,754.3 636.7,748 635.9,742.1C633.4,724.1 617.2,706.3 603.3,695.8C595.3,689.7 583.8,683.5 573.3,685.2C572.2,685.4 572.1,685.4 571.5,686.4C573.6,688.5 576.9,690.2 579.5,691.8C586.2,696.2 593.2,702.8 595.6,710.7C597.4,716.9 596.3,722.3 593.4,727.8C592.8,724.6 592.3,721 591.2,717.9C588.9,711 582.9,706.2 576.6,703C551.8,690.9 508.7,698.5 483.4,707.2C461.7,714.6 443.6,725.2 433.3,746.4C426,761.8 422,777.7 427.3,794.4C439.6,833.2 488.6,843 523.7,847C528.1,847.5 542.2,847.6 545.4,849.2C543.1,851.2 536.3,851.1 533.2,851.5C532.5,851.7 531.8,851.8 531,851.9C525.2,852.5 519,852.3 513.2,852.4C483.8,852.6 453.8,847.3 430.7,827.8C414.4,814.1 405.9,794.6 404.2,773.7C402,747.1 414.6,719.7 431.6,699.8C463.1,663.1 512.3,638.4 559.6,630C567.4,628.6 575.1,628.3 583,627.7Z"/>
</svg>
